<mxfile host="app.diagrams.net" agent="Mozilla/5.0 (Windows NT 10.0; Win64; x64) AppleWebKit/537.36 (KHTML, like Gecko) Chrome/138.0.0.0 Safari/537.36" version="28.0.4">
  <diagram name="第 1 页" id="jCwdVfTAPyW3E-42XXGb">
    <mxGraphModel dx="1426" dy="751" grid="0" gridSize="10" guides="1" tooltips="1" connect="1" arrows="1" fold="1" page="1" pageScale="1" pageWidth="827" pageHeight="1169" math="0" shadow="0">
      <root>
        <mxCell id="0" />
        <mxCell id="1" parent="0" />
        <mxCell id="-7aWpwj9xy9CQ1L1Qbe9-3" style="edgeStyle=none;rounded=0;orthogonalLoop=1;jettySize=auto;html=1;exitX=0;exitY=1;exitDx=0;exitDy=0;entryX=0.5;entryY=0;entryDx=0;entryDy=0;sketch=1;curveFitting=1;jiggle=2;" parent="1" source="-7aWpwj9xy9CQ1L1Qbe9-1" target="-7aWpwj9xy9CQ1L1Qbe9-4" edge="1">
          <mxGeometry relative="1" as="geometry">
            <mxPoint x="300" y="430" as="targetPoint" />
          </mxGeometry>
        </mxCell>
        <mxCell id="-7aWpwj9xy9CQ1L1Qbe9-7" value="" style="edgeStyle=none;rounded=0;orthogonalLoop=1;jettySize=auto;html=1;exitX=1;exitY=1;exitDx=0;exitDy=0;sketch=1;curveFitting=1;jiggle=2;" parent="1" source="-7aWpwj9xy9CQ1L1Qbe9-1" target="-7aWpwj9xy9CQ1L1Qbe9-6" edge="1">
          <mxGeometry relative="1" as="geometry" />
        </mxCell>
        <mxCell id="-7aWpwj9xy9CQ1L1Qbe9-1" value="&lt;font face=&quot;Lucida Console&quot; style=&quot;font-size: 20px;&quot;&gt;Tablet&lt;/font&gt;" style="rounded=1;whiteSpace=wrap;html=1;sketch=1;curveFitting=1;jiggle=2;" parent="1" vertex="1">
          <mxGeometry x="380" y="250" width="120" height="60" as="geometry" />
        </mxCell>
        <mxCell id="-7aWpwj9xy9CQ1L1Qbe9-4" value="&lt;font style=&quot;font-size: 18px;&quot; face=&quot;Lucida Console&quot;&gt;MemRowSet&lt;/font&gt;" style="rounded=1;whiteSpace=wrap;html=1;sketch=1;curveFitting=1;jiggle=2;" parent="1" vertex="1">
          <mxGeometry x="220" y="380" width="120" height="60" as="geometry" />
        </mxCell>
        <mxCell id="-7aWpwj9xy9CQ1L1Qbe9-8" style="edgeStyle=none;rounded=0;orthogonalLoop=1;jettySize=auto;html=1;entryX=0.425;entryY=-0.025;entryDx=0;entryDy=0;entryPerimeter=0;sketch=1;curveFitting=1;jiggle=2;" parent="1" source="-7aWpwj9xy9CQ1L1Qbe9-6" target="-7aWpwj9xy9CQ1L1Qbe9-9" edge="1">
          <mxGeometry relative="1" as="geometry">
            <mxPoint x="600" y="530" as="targetPoint" />
          </mxGeometry>
        </mxCell>
        <mxCell id="-7aWpwj9xy9CQ1L1Qbe9-6" value="&lt;font style=&quot;font-size: 18px;&quot; face=&quot;Lucida Console&quot;&gt;DiskRowSets&lt;/font&gt;" style="whiteSpace=wrap;html=1;rounded=1;sketch=1;curveFitting=1;jiggle=2;" parent="1" vertex="1">
          <mxGeometry x="530" y="380" width="140" height="60" as="geometry" />
        </mxCell>
        <mxCell id="-7aWpwj9xy9CQ1L1Qbe9-12" value="" style="group;sketch=1;curveFitting=1;jiggle=2;" parent="1" vertex="1" connectable="0">
          <mxGeometry x="530" y="500" width="140" height="100" as="geometry" />
        </mxCell>
        <mxCell id="-7aWpwj9xy9CQ1L1Qbe9-9" value="" style="shape=document;whiteSpace=wrap;html=1;boundedLbl=1;sketch=1;curveFitting=1;jiggle=2;" parent="-7aWpwj9xy9CQ1L1Qbe9-12" vertex="1">
          <mxGeometry x="20" width="120" height="80" as="geometry" />
        </mxCell>
        <mxCell id="-7aWpwj9xy9CQ1L1Qbe9-10" value="" style="shape=document;whiteSpace=wrap;html=1;boundedLbl=1;sketch=1;curveFitting=1;jiggle=2;" parent="-7aWpwj9xy9CQ1L1Qbe9-12" vertex="1">
          <mxGeometry x="10" y="10" width="120" height="80" as="geometry" />
        </mxCell>
        <mxCell id="-7aWpwj9xy9CQ1L1Qbe9-11" value="&lt;font style=&quot;font-size: 16px;&quot; face=&quot;Lucida Console&quot;&gt;DiskRowSet&lt;/font&gt;" style="shape=document;whiteSpace=wrap;html=1;boundedLbl=1;sketch=1;curveFitting=1;jiggle=2;" parent="-7aWpwj9xy9CQ1L1Qbe9-12" vertex="1">
          <mxGeometry y="20" width="120" height="80" as="geometry" />
        </mxCell>
      </root>
    </mxGraphModel>
  </diagram>
</mxfile>
